<?xml version="1.0" encoding="utf-8"?>
<!-- Generator: Adobe Illustrator 18.0.0, SVG Export Plug-In . SVG Version: 6.00 Build 0)  -->
<!DOCTYPE svg PUBLIC "-//W3C//DTD SVG 1.1//EN" "http://www.w3.org/Graphics/SVG/1.1/DTD/svg11.dtd">
<svg version="1.1" id="Layer_1" xmlns="http://www.w3.org/2000/svg" xmlns:xlink="http://www.w3.org/1999/xlink" x="0px" y="0px"
	 viewBox="0 0 32 32" enable-background="new 0 0 32 32" xml:space="preserve">
<g id="head">
	<g>
		<path fill="#75543B" d="M13.8,20.6c0,0,1.6,5-3.9,5l4.9,1.5l4-4.2L13.8,20.6z"/>
		<path fill="#B24949" d="M17.1,25c0,0-4.1-1.5-5.9,1.1l3.7,0.9L17.1,25z"/>
	</g>
	<g>
		<path fill="#D39C76" d="M9.9,25.4c2.1,1.1,5,0.6,6,0c1.5-0.8,1.5-3,1.1-3.2c-0.2-0.1-2.2,1.3-5.9,0.1l0.4-3.3l-5.9-0.2L9.7,8.4
			c0,0,7-2.9,14,0v10.6c0.4-0.1,0.8-0.2,1.1,0c0.9,0.3,1.1,1.4,0.6,2.5c-0.4,0.7-1,1.3-1.7,1.4v6.2c0,0-7.2,4.8-15.1,2.1
			c0,0-2.5-0.8-2.3-3.4C6.3,27.6,6.1,25.9,9.9,25.4z"/>
	</g>
	<g>
		<path fill="#634128" d="M15.1,14.4c0,0.5,0.9,1,1.9,1c1.1,0,1.9-0.4,1.9-1c0-0.5-0.9-1-1.9-1C16,13.4,15.1,13.9,15.1,14.4z"/>
		<path fill="#634128" d="M9.7,14.4c0,0.5,0.8,1,1.9,1c1,0,1.9-0.4,1.9-1s-0.8-1-1.9-1C10.5,13.5,9.7,13.9,9.7,14.4z"/>
	</g>
	<g>
		<path fill="#231F20" d="M23.8,10.5C23.8,10.5,23.8,10.5,23.8,10.5c0-1.5,0-3.3,0-4.5c0.1-3.6,1.4-5.1,0.4-5.3
			c-1-0.2-3.2-0.6-7.8-0.6c-4.1,0-7.2,0.5-8.2,0.6C7.3,1,9,3.9,9.3,6c0.1,1,0.1,2.5,0.1,3.8c-3.3,0.5-5.3,1.7-5.7,2.8h26.6
			C30.3,12.6,30,11.5,23.8,10.5z"/>
	</g>
	<path fill="#353433" d="M12.8,22.4c3.1,2.8,10.4,2.3,10.9-2.1c0.1-1.3-0.5-0.3-1.1,0.1c-0.9,0.6-2.5,0.6-3.4,0
		c-1.5-1-4.1-4.1-6.4-1.8c-2.4-2.3-5,0.8-6.5,1.8c-0.9,0.6-2.6,0.6-3.5,0c-0.6-0.4-1.2-1.3-1.1-0.1C2.2,24.7,9.6,25.2,12.8,22.4z"/>
</g>
</svg>
