<svg version="1.1" id="Layer_1" xmlns="http://www.w3.org/2000/svg" x="0" y="0" viewBox="0 0 32 32" enable-background="new 0 0 32 32" xml:space="preserve"><g id="head"><path fill="#75543B" d="M13.8 20.6s1.6 5-3.9 5l4.9 1.5 4-4.2-5-2.3z"/><path fill="#B24949" d="M17.1 25s-4.1-1.5-5.9 1.1l3.7.9 2.2-2z"/><path fill="#D39C76" d="M9.9 25.4c2.1 1.1 5 .6 6 0 1.5-.8 1.5-3 1.1-3.2-.2-.1-2.2 1.3-5.9.1l.4-3.3-5.9-.2L9.7 8.4s7-2.9 14 0V19c.4-.1.8-.2 1.1 0 .9.3 1.1 1.4.6 2.5-.4.7-1 1.3-1.7 1.4v6.2s-7.2 4.8-15.1 2.1c0 0-2.5-.8-2.3-3.4 0-.2-.2-1.9 3.6-2.4z"/><g fill="#634128"><path d="M15.1 14.4c0 .5.9 1 1.9 1 1.1 0 1.9-.4 1.9-1 0-.5-.9-1-1.9-1-1 0-1.9.5-1.9 1zM9.7 14.4c0 .5.8 1 1.9 1 1 0 1.9-.4 1.9-1s-.8-1-1.9-1c-1.1.1-1.9.5-1.9 1z"/></g><path fill="#231F20" d="M23.8 10.5V6c.1-3.6 1.4-5.1.4-5.3-1-.2-3.2-.6-7.8-.6-4.1 0-7.2.5-8.2.6C7.3 1 9 3.9 9.3 6c.1 1 .1 2.5.1 3.8-3.3.5-5.3 1.7-5.7 2.8h26.6s-.3-1.1-6.5-2.1z"/><path fill="#353433" d="M12.8 22.4c3.1 2.8 10.4 2.3 10.9-2.1.1-1.3-.5-.3-1.1.1-.9.6-2.5.6-3.4 0-1.5-1-4.1-4.1-6.4-1.8-2.4-2.3-5 .8-6.5 1.8-.9.6-2.6.6-3.5 0-.6-.4-1.2-1.3-1.1-.1.5 4.4 7.9 4.9 11.1 2.1z"/></g></svg>