<svg version="1.1" id="guy" viewBox="0 0 486 486" preserveAspectRatio="xMinYMin meet"><g id="shadows" opacity=".1"><path d="M55.997 405.22c0 3.052 41.857 5.5 93.51 5.5 51.642 0 93.493-2.448 93.493-5.5 0-3.036-41.85-5.514-93.494-5.514-51.652 0-93.51 2.478-93.51 5.515zM265.91 405.218c0 1.604 25.276 2.895 56.47 2.895 31.185 0 56.457-1.29 56.457-2.895 0-1.6-25.272-2.905-56.458-2.905-31.193 0-56.47 1.305-56.47 2.905zM390.533 405.218c0 1.604 5.264 2.895 11.76 2.895 6.494 0 11.756-1.29 11.756-2.895 0-1.6-5.263-2.905-11.757-2.905-6.496 0-11.76 1.305-11.76 2.905z"/></g><g id="canvas"><path fill="#844E29" d="M99.383 397.553c-1.92 5.045-5.994 8.17-9.103 6.984-3.105-1.187-4.066-6.23-2.144-11.27l27.838-73.038c1.922-5.04 6-8.17 9.103-6.987 3.108 1.187 4.067 6.237 2.147 11.276l-27.84 73.033zM196.125 397.553c1.917 5.045 5.997 8.17 9.1 6.984 3.107-1.187 4.07-6.23 2.148-11.27l-27.838-73.038c-1.922-5.04-6-8.17-9.108-6.987-3.104 1.187-4.063 6.237-2.143 11.276l27.84 73.033z"/><path fill="#EADBC4" d="M50.055 189.846h195.4v136.78h-195.4z"/><path fill="#8C5733" d="M249.363 330.538H46.146v-144.6h203.217v144.6zm-195.4-7.817h187.584V193.755H53.963V322.72z"/></g><svg id="chart-canvas" x="50.055" y="189.846" width="195.399" height="136.78" viewBox="0 0 195.399 136.78"/><path fill="#231F20" d="M365.406 347.48l.982 53.304h-8.344l-4.4-40.897s-7.465 1.87-26.57 1.87c-19.11 0-28.33-1.335-28.33-1.335l-11.924 40.59-8.343-.133 10.16-53.47 5.705-2.122 68.967-.797 2.096 2.99z"/><path fill="#231F20" d="M357.917 400.262s-1.015 2.634-.09 4.063h6.01v-.63s.64.63 3.555.663c2.908.023 9.43.114 11.37-1.115 0 0 1.387-1.072-1.2-1.13 0 0-5.678.845-8.738-.104 0 0-2.31-.808-2.357-1.71 0 0-4.8 1.016-8.55-.038zM287.12 400.262s1.016 2.634.09 4.063h-6.014v-.63s-.64.63-3.55.663c-2.91.023-9.425.114-11.37-1.115 0 0-1.377-1.072 1.2-1.13 0 0 5.68.845 8.746-.104 0 0 2.298-.808 2.354-1.71 0 0 4.81 1.016 8.543-.038zM367.54 263.194l9.832 8.097-11.966 77.11s-18.57 3.237-38.553 3.237c-19.99 0-38.216-3.312-38.216-3.312l-13.28-76.988 11.975-7.143 34.154 13.28 42.312-12.767 3.743-1.513z"/><path fill="#231F20" d="M374.023 270.917s34.3 3.662 49.058 46.51l-6.688 3.906s-17.488-37.537-42.646-32.047l.277-18.37z"/><path fill-rule="evenodd" clip-rule="evenodd" fill="#414042" d="M455.557 147.756c-.8 5.217-5.587 8.985-10.896 8.468l-6.287-.81c7.505-87.96 7.05-87.907-2.574-.154l-17.127-1.765c7.51-87.96 7.06-87.907-2.57-.154l-7.24-.804c-5.49-.534-9.554-5.47-9.018-10.963 6.13-74.353 5.82-73.637-2.56.76l-.14 1.375c-.565 5.793 3.717 10.997 9.507 11.562l16.726 1.63-.83 8.527 6.41.626.83-8.527 16.728 1.63c5.79.565 10.997-3.713 11.56-9.505l.102-1.375c6.318-75.824 5.61-74.182-2.62-.52z"/><path fill-rule="evenodd" clip-rule="evenodd" fill="#844E29" d="M429.494 160.577l-6.416-.627-2.663 6.8-23.107 236.98v.023c-.11 1.092 2.126 2.203 4.99 2.484 2.868.278 5.278-.38 5.384-1.472.004-.01 0-.016 0-.023l23.113-237.035-1.3-7.13z"/><path fill="#D39C76" d="M422.704 316.815l1.037 1.704s2.688 1.158 3.318 2.058c.84 1.234 1.4 2.037 1.974 3.85.56 1.814-6.853 6.975-8.845 6.325-1.975-.652-2.015-3.35-2.015-3.35s-.445 2.204-.797 3.158c-.358.983-2.236 1.508-2.92-.168-.73-1.647-.026-3.652.305-5.063.323-1.406 1.542-3.28 1.542-3.28l.266-2.203 6.136-3.032zM223.65 272.968l-2.672-1.16s-2.254.33-3.31-.208c-1.41-.712-3.9-2.577-5.352-3.995-1.447-1.416-2.41-3.148-2.687-4.152-.465-1.767 2.707-6.68 4.91-7.092 2.187-.383 8.05 4.367 8.05 4.367s-.71-2.315-.863-3.397c-.146-1.088 1.344-2.52 2.846-1.325 1.497 1.22 1.85 3.445 2.256 4.937.4 1.505.204 3.858.204 3.858l.854 2.196-4.238 5.972z"/><path fill="#231F20" d="M275.358 271.338s-23.175 16.36-47.895-5.434l-4.644 6.707s20.48 22.948 60.227 13.9l-7.69-15.172z"/><path fill="#D70206" d="M364.686 283.888c-1.82-3.882-2.165-9.354-1.94-14.52-5.226 3.14-13.097 7.187-22.707 10.078-5.586 8.248-13.826 13.896-13.826 13.896l-2.406 53.768 6.616 9.878s11.415-4.414 21.338-6.726c9.915-2.306 23.438-4.83 23.438-4.83s-3.114-11.777-3-24.362c.062-7.8 3-23.522 3-23.522s-6.012-3.992-10.514-13.66z"/><path fill="#D70206" d="M324.613 292.854l.47-.328c.024-.004.432-.3 1.13-.82-2.197-1.732-5.705-4.76-8.937-8.645-8.197.16-16.934-1.003-25.9-4.223-.317 1.837-.772 3.57-1.465 5.05-4.518 9.67-10.527 13.66-10.527 13.66s2.938 15.723 3.01 23.522c.104 12.584-3.01 24.36-3.01 24.36s13.522 2.525 23.445 4.83c9.926 2.313 21.35 6.727 21.35 6.727l2.23-3.332-4.224-6.31 2.43-54.49z"/><path fill="#231F20" d="M337.912 337.627c-.133 2.848-2.553 5.05-5.396 4.912-2.855-.133-5.05-2.55-4.916-5.397.132-2.852 2.55-5.05 5.4-4.916 2.844.132 5.05 2.548 4.912 5.4zM339.284 308.496c-.132 2.852-2.56 5.05-5.4 4.916-2.854-.132-5.05-2.547-4.912-5.4.133-2.848 2.543-5.05 5.395-4.912 2.847.132 5.05 2.548 4.917 5.396zM338.6 323.063c-.132 2.848-2.557 5.05-5.4 4.916-2.852-.133-5.05-2.554-4.916-5.4.133-2.85 2.547-5.052 5.4-4.92 2.84.135 5.048 2.555 4.917 5.403z"/><g id="head"><path fill="#75543B" d="M316.574 211.633s8.435 31.83-21.068 31.83l26.222 9.832 21.53-27.05-26.684-14.612z"/><path fill="#B24949" d="M334.372 239.252s-22.004-9.845-31.367 7.018l19.658 5.608 11.71-12.626z"/><path fill="#D39C76" d="M295.506 242.203c11.187 6.773 26.598 4.005 32.273.256 8.08-5.34 8.305-19.213 5.66-20.376-.915-.407-11.94 8.32-31.836.466l2.335-21.066-31.827-1.407 22.467-66.457s37.447-18.722 74.884 0v67.3c1.993-.862 4.044-1.033 5.877-.267 4.643 1.956 6.094 9.043 3.246 15.835-2.003 4.744-5.563 8.02-9.122 8.94v39.228s-38.372 30.437-80.97 13.105c0 0-13.22-4.965-12.34-21.7 0 .002-.76-11.055 19.352-13.857z"/><path fill="#BF8862" d="M289.24 267.313c4.743 0 9.64-3.363 9.934-3.577l-.53-.765c-.104.062-9.664 6.635-14.414 1.254-2.742-3.104-2.925-5.976-2.606-7.854.394-2.244 1.757-4.254 3.542-5.244 1.93-1.078 5.05-1.715 7.636-.73 1.627.61 2.73 1.75 3.328 3.406.93 2.61-.285 4.5-1.084 5.396-1.39 1.566-3.56 2.435-5.13 2.06-1.68-.39-3.176-1.903-3.488-3.525-.17-.822-.075-2.017 1.306-2.996.844-.587 1.613-.77 2.287-.587 1.15.36 1.714 1.764 1.724 1.784l.864-.347c-.023-.08-.73-1.847-2.315-2.32-.96-.296-2.01-.053-3.108.707-1.387.973-1.976 2.373-1.67 3.94.378 1.992 2.145 3.762 4.192 4.246 1.905.432 4.448-.535 6.038-2.345 1.62-1.808 2.07-4.06 1.268-6.34-.675-1.88-2.014-3.262-3.878-3.954-2.848-1.086-6.293-.398-8.425.788-2.044 1.116-3.573 3.394-4 5.905-.366 2.078-.166 5.263 2.813 8.632 1.613 1.828 3.643 2.468 5.718 2.468z"/><g fill="#634128"><path d="M322.743 167.376c0 2.438 3.327 4.407 7.373 4.407 4.08 0 7.384-1.97 7.384-4.407s-3.304-4.41-7.384-4.41c-4.046 0-7.373 1.972-7.373 4.41zM300.015 167.376c0 2.438 3.228 4.407 7.232 4.407 4.003 0 7.253-1.97 7.253-4.407s-3.25-4.41-7.253-4.41c-4.005 0-7.232 1.972-7.232 4.41z"/></g><path fill="#231F20" d="M370.385 133.598c-.033-.007-.066-.014-.108-.02-.062-9.23-.08-21.112.133-28.557.66-22.938 7.45-32.7 2.102-33.734-5.353-1.034-17.218-3.52-41.704-3.52-21.93 0-38.58 3.106-43.79 4.14-5.213 1.036 3.648 19.665 5.21 33.115.736 6.314.783 15.91.62 24.337-17.872 3.106-28.285 10.71-30.615 17.658h154.12s-13.182-6.82-45.968-13.417z"/><path fill="#353433" d="M311.12 223.02c16.584 17.84 55.86 14.923 58.32-13.077.728-8.25-2.64-2.152-5.785.342-4.637 3.675-13.508 3.738-18.19.054-8.122-6.4-21.928-25.92-34.345-11.53-12.648-14.392-26.71 5.13-34.988 11.53-4.764 3.683-13.806 3.62-18.527-.055-3.204-2.495-6.63-8.593-5.896-.342 2.505 28 42.524 30.916 59.41 13.076z"/><g><path fill="#BF8862" d="M369.464 147.015h-79.412l-2.7 7.985h82.112z"/></g></g></svg>