<svg version="1.1" id="guy" viewBox="0 0 486 486" preserveAspectRatio="xMinYMin meet"><g id="shadows" opacity=".1"><path d="M55.997 405.221c0 3.051 41.857 5.499 93.509 5.499 51.643 0 93.494-2.448 93.494-5.499 0-3.037-41.851-5.515-93.494-5.515-51.652 0-93.509 2.478-93.509 5.515zM265.91 405.218c0 1.604 25.276 2.895 56.469 2.895 31.186 0 56.458-1.291 56.458-2.895 0-1.6-25.272-2.905-56.458-2.905-31.192 0-56.469 1.305-56.469 2.905zM390.533 405.218c0 1.604 5.264 2.895 11.76 2.895 6.494 0 11.756-1.291 11.756-2.895 0-1.6-5.262-2.905-11.756-2.905-6.496 0-11.76 1.305-11.76 2.905z"/></g><g id="canvas"><path fill="#844E29" d="M99.383 397.553c-1.92 5.045-5.994 8.171-9.103 6.984-3.105-1.187-4.066-6.231-2.144-11.271l27.838-73.037c1.922-5.04 5.999-8.169 9.103-6.986 3.108 1.187 4.067 6.237 2.147 11.276l-27.841 73.034z"/><path fill="#844E29" d="M196.125 397.553c1.917 5.045 5.997 8.171 9.101 6.984 3.106-1.187 4.07-6.231 2.147-11.271l-27.838-73.037c-1.922-5.04-5.999-8.169-9.108-6.986-3.104 1.187-4.063 6.237-2.143 11.276l27.841 73.034z"/><rect x="50.055" y="189.846" fill="#EADBC4" width="195.399" height="136.78"/><path fill="#8C5733" d="M249.363 330.538h-203.217v-144.6h203.217v144.6zm-195.4-7.817h187.584v-128.967h-187.584v128.967z"/></g><svg id="chart-canvas" x="50.055" y="189.846" width="195.399" height="136.78"/><path fill="#231F20" d="M365.406 347.481l.982 53.303h-8.344l-4.399-40.897s-7.466 1.87-26.572 1.87c-19.109 0-28.33-1.335-28.33-1.335l-11.923 40.59-8.343-.133 10.16-53.469 5.705-2.122 68.967-.797 2.097 2.99z"/><path fill="#231F20" d="M357.917 400.262s-1.015 2.634-.089 4.063h6.008v-.631s.641.631 3.556.664c2.908.023 9.429.114 11.37-1.115 0 0 1.387-1.072-1.2-1.129 0 0-5.678.844-8.738-.105 0 0-2.31-.807-2.357-1.708-.001-.001-4.801 1.015-8.55-.039z"/><path fill="#231F20" d="M287.119 400.262s1.017 2.634.091 4.063h-6.014v-.631s-.641.631-3.55.664c-2.909.023-9.425.114-11.371-1.115 0 0-1.376-1.072 1.201-1.129 0 0 5.681.844 8.746-.105 0 0 2.298-.807 2.354-1.708 0-.001 4.81 1.015 8.543-.039z"/><path fill="#231F20" d="M367.541 263.194l9.831 8.097-11.966 77.11s-18.571 3.236-38.553 3.236c-19.991 0-38.216-3.312-38.216-3.312l-13.279-76.988 11.974-7.143 34.154 13.281 42.312-12.768 3.743-1.513z"/><path fill="#231F20" d="M374.023 270.917s34.299 3.662 49.058 46.511l-6.689 3.905s-17.488-37.537-42.646-32.047l.277-18.369z"/><path fill-rule="evenodd" clip-rule="evenodd" fill="#414042" d="M455.557 147.756c-.801 5.217-5.587 8.985-10.896 8.468l-6.288-.81c7.505-87.959 7.051-87.907-2.574-.154l-17.126-1.765c7.509-87.96 7.059-87.907-2.57-.154l-7.24-.805c-5.491-.534-9.554-5.47-9.018-10.963 6.129-74.353 5.82-73.637-2.561.761l-.138 1.374c-.566 5.793 3.716 10.997 9.506 11.562l16.726 1.631-.83 8.526 6.411.626.83-8.527 16.727 1.631c5.79.564 10.997-3.714 11.561-9.506l.101-1.376c6.318-75.824 5.609-74.182-2.621-.519z"/><path fill-rule="evenodd" clip-rule="evenodd" fill="#844E29" d="M429.494 160.577l-6.416-.627-2.663 6.799-23.107 236.981v.023c-.111 1.092 2.126 2.203 4.991 2.484 2.867.278 5.277-.38 5.383-1.472v-.023l23.113-237.035-1.301-7.13z"/><path fill="#D39C76" d="M422.704 316.815l1.037 1.704s2.687 1.159 3.317 2.059c.841 1.234 1.401 2.037 1.974 3.851.559 1.813-6.853 6.974-8.845 6.324-1.975-.652-2.015-3.35-2.015-3.35s-.445 2.204-.797 3.158c-.358.982-2.236 1.507-2.921-.169-.728-1.647-.025-3.652.306-5.063.323-1.405 1.542-3.278 1.542-3.278l.266-2.204 6.136-3.032z"/><path fill="#D39C76" d="M223.65 272.968l-2.672-1.159s-2.254.328-3.31-.209c-1.41-.712-3.899-2.577-5.352-3.995-1.447-1.416-2.411-3.148-2.687-4.152-.464-1.767 2.708-6.679 4.91-7.092 2.188-.384 8.052 4.366 8.052 4.366s-.71-2.315-.864-3.397c-.146-1.088 1.344-2.521 2.846-1.325 1.497 1.221 1.849 3.445 2.256 4.937.401 1.505.205 3.858.205 3.858l.854 2.196-4.238 5.972z"/><path fill="#231F20" d="M275.358 271.338s-23.175 16.36-47.895-5.434l-4.644 6.707s20.482 22.947 60.228 13.9l-7.689-15.173z"/><path fill="#D70206" d="M364.686 283.888c-1.819-3.882-2.165-9.354-1.941-14.52-5.225 3.139-13.096 7.187-22.706 10.078-5.585 8.248-13.825 13.896-13.825 13.896l-2.406 53.768 6.616 9.878s11.415-4.414 21.338-6.726c9.915-2.306 23.438-4.831 23.438-4.831s-3.114-11.776-3-24.361c.062-7.8 3-23.522 3-23.522s-6.012-3.992-10.514-13.66z"/><path fill="#D70206" d="M324.613 292.854l.471-.328c.023-.004.431-.299 1.129-.82-2.197-1.732-5.705-4.76-8.937-8.645-8.197.158-16.934-1.004-25.899-4.224-.318 1.837-.773 3.569-1.466 5.051-4.519 9.668-10.528 13.659-10.528 13.659s2.938 15.723 3.01 23.522c.104 12.585-3.01 24.361-3.01 24.361s13.522 2.525 23.445 4.831c9.926 2.312 21.35 6.726 21.35 6.726l2.23-3.332-4.224-6.309 2.429-54.492z"/><path fill="#231F20" d="M337.912 337.627c-.133 2.848-2.553 5.051-5.396 4.912-2.855-.132-5.049-2.549-4.916-5.396.132-2.852 2.549-5.049 5.4-4.916 2.844.132 5.051 2.548 4.912 5.4z"/><path fill="#231F20" d="M339.284 308.496c-.132 2.852-2.559 5.051-5.4 4.916-2.854-.132-5.051-2.547-4.912-5.4.133-2.848 2.543-5.049 5.395-4.912 2.847.132 5.05 2.548 4.917 5.396z"/><path fill="#231F20" d="M338.601 323.063c-.133 2.848-2.558 5.049-5.401 4.916-2.852-.132-5.051-2.553-4.916-5.4.133-2.848 2.547-5.051 5.4-4.918 2.841.134 5.048 2.554 4.917 5.402z"/><g id="head"><path fill="#75543B" d="M316.574 211.633s8.435 31.83-21.068 31.83l26.222 9.832 21.53-27.049-26.684-14.613z"/><path fill="#B24949" d="M334.372 239.252s-22.004-9.845-31.367 7.018l19.658 5.608 11.709-12.626z"/><path fill="#D39C76" d="M295.506 242.203c11.187 6.773 26.598 4.005 32.273.256 8.082-5.339 8.306-19.212 5.661-20.375-.915-.407-11.94 8.321-31.836.466l2.335-21.066-31.826-1.407 22.467-66.457s37.447-18.722 74.884 0v67.299c1.993-.861 4.044-1.032 5.877-.266 4.642 1.956 6.093 9.043 3.245 15.835-2.003 4.744-5.563 8.021-9.122 8.941v39.227s-38.372 30.437-80.969 13.105c0 0-13.222-4.966-12.34-21.7 0 .001-.762-11.056 19.351-13.858z"/><path fill="#BF8862" d="M289.241 267.313c4.742 0 9.64-3.363 9.933-3.577l-.529-.765c-.105.061-9.665 6.634-14.415 1.253-2.742-3.104-2.925-5.976-2.606-7.854.394-2.244 1.757-4.254 3.542-5.244 1.931-1.078 5.049-1.715 7.636-.731 1.627.612 2.729 1.752 3.328 3.407.929 2.61-.285 4.501-1.084 5.396-1.391 1.566-3.56 2.435-5.13 2.061-1.681-.39-3.176-1.904-3.488-3.526-.17-.822-.075-2.017 1.306-2.996.844-.587 1.613-.769 2.287-.587 1.149.36 1.713 1.764 1.723 1.784l.864-.347c-.023-.081-.731-1.847-2.315-2.321-.959-.295-2.01-.052-3.108.708-1.387.973-1.976 2.373-1.671 3.939.379 1.993 2.146 3.763 4.193 4.247 1.905.432 4.448-.535 6.038-2.345 1.619-1.808 2.07-4.059 1.268-6.341-.675-1.88-2.014-3.261-3.878-3.953-2.848-1.087-6.293-.399-8.425.787-2.044 1.116-3.573 3.394-4 5.905-.366 2.078-.166 5.263 2.813 8.632 1.613 1.828 3.643 2.468 5.718 2.468z"/><g fill="#634128"><path d="M322.743 167.376c0 2.438 3.327 4.407 7.373 4.407 4.08 0 7.384-1.97 7.384-4.407s-3.304-4.409-7.384-4.409c-4.046 0-7.373 1.971-7.373 4.409zM300.015 167.376c0 2.438 3.228 4.407 7.232 4.407 4.003 0 7.253-1.97 7.253-4.407s-3.25-4.409-7.253-4.409c-4.005 0-7.232 1.971-7.232 4.409z"/></g><path fill="#231F20" d="M370.385 133.598l-.108-.021c-.062-9.229-.081-21.111.133-28.556.66-22.939 7.451-32.7 2.102-33.735-5.353-1.034-17.218-3.519-41.704-3.519-21.931 0-38.58 3.105-43.791 4.138-5.212 1.037 3.649 19.666 5.211 33.116.736 6.313.783 15.91.621 24.336-17.873 3.106-28.286 10.71-30.616 17.658h154.12c-.001 0-13.182-6.82-45.968-13.417z"/><path fill="#353433" d="M311.12 223.019c16.584 17.84 55.861 14.924 58.319-13.076.729-8.251-2.638-2.152-5.784.342-4.637 3.675-13.508 3.738-18.191.054-8.121-6.398-21.927-25.92-34.344-11.528-12.648-14.393-26.71 5.13-34.988 11.528-4.764 3.684-13.806 3.621-18.527-.054-3.204-2.495-6.631-8.593-5.896-.342 2.506 28 42.525 30.916 59.411 13.076z"/><polygon fill="#BF8862" points="369.464,147.015 290.052,147.015 287.353,155 369.464,155"/></g></svg>